<?xml version="1.0" encoding="UTF-8" standalone="no"?>
<svg
   width="50"
   height="50"
   version="1.1"
   viewBox="0 0 13.229 13.229"
   id="svg67"
   sodipodi:docname="IconSearch.svg"
   inkscape:version="1.1.1 (3bf5ae0d25, 2021-09-20)"
   xmlns:inkscape="http://www.inkscape.org/namespaces/inkscape"
   xmlns:sodipodi="http://sodipodi.sourceforge.net/DTD/sodipodi-0.dtd"
   xmlns="http://www.w3.org/2000/svg"
   xmlns:svg="http://www.w3.org/2000/svg">
  <defs
     id="defs71" />
  <sodipodi:namedview
     id="namedview69"
     pagecolor="#ffffff"
     bordercolor="#666666"
     borderopacity="1.0"
     inkscape:pageshadow="2"
     inkscape:pageopacity="0.0"
     inkscape:pagecheckerboard="0"
     showgrid="false"
     inkscape:zoom="16.04"
     inkscape:cx="31.203242"
     inkscape:cy="23.254364"
     inkscape:window-width="1920"
     inkscape:window-height="1011"
     inkscape:window-x="1366"
     inkscape:window-y="32"
     inkscape:window-maximized="1"
     inkscape:current-layer="svg67" />
  <g
     transform="matrix(0.034123,0,0,0.034123,0.88195,0.88)"
     image-rendering="optimizeQuality"
     shape-rendering="geometricPrecision"
     id="g63">
    <path
       class="fil0"
       d="m 38,38 c 51,-51 134,-51 185,0 50,51 50,134 0,185 C 172,273 89,273 38,223 -13,172 -13,89 38,38 Z m 21,21 c -39,40 -39,103 0,143 39,39 103,39 143,0 C 241,162 241,98 202,59 162,20 99,20 59,59 Z"
       id="path57" />
    <path
       class="fil1"
       d="m 254,215 74,75 c 11,10 11,28 0,38 -10,11 -28,11 -38,0 l -75,-74 c 8,-5 15,-11 21,-18 7,-6 13,-13 18,-21 z"
       id="path59" />
    <path
       class="fil0"
       d="M 44,121 C 47,102 56,84 70,70 84,56 102,47 121,44 l 3,20 C 108,66 94,73 84,84 73,94 66,108 64,124 Z"
       id="path61" />
  </g>
</svg>
